<svg xmlns="http://www.w3.org/2000/svg" xmlns:xlink="http://www.w3.org/1999/xlink" width="1278" zoomAndPan="magnify" viewBox="0 0 958.5 425.249996" height="567" preserveAspectRatio="xMidYMid meet" version="1.0"><path fill="#351d34" d="M 101.472656 42.644531 C 72.4375 44.835938 50.316406 56.882812 37.960938 77.230469 C 34.339844 83.195312 32.113281 89.363281 30.351562 98.296875 C 29.242188 103.925781 29.203125 119.367188 30.28125 124.941406 C 33.894531 143.578125 43.75 157.992188 60.796875 169.574219 C 67.941406 174.429688 77.945312 179.433594 88.804688 183.585938 C 93.175781 185.253906 110.527344 190.675781 115.226562 191.835938 C 122.335938 193.59375 139.585938 200.910156 144.285156 204.160156 C 150.925781 208.75 154.757812 214.8125 155.957031 222.625 C 157.96875 235.734375 150.726562 245.046875 135.082031 249.472656 C 128.824219 251.242188 112.914062 251.425781 106.238281 249.804688 C 89.089844 245.636719 73.167969 236.402344 57.820312 221.722656 L 52.257812 216.402344 L 48.335938 220.738281 C 46.175781 223.121094 41.886719 227.710938 38.800781 230.933594 C 35.710938 234.15625 31.507812 238.640625 29.457031 240.894531 C 27.402344 243.148438 24.199219 246.527344 22.335938 248.40625 C 20.476562 250.285156 18.953125 252.164062 18.953125 252.585938 C 18.953125 253.726562 27.265625 262.101562 33.332031 267.074219 C 46.710938 278.042969 64.550781 287.289062 80.402344 291.472656 C 94.171875 295.105469 104.324219 296.292969 121.578125 296.296875 C 136.371094 296.300781 143.480469 295.617188 153.5625 293.226562 C 156.894531 292.433594 163.4375 290.457031 164.972656 289.773438 C 165.617188 289.488281 167.851562 288.578125 169.9375 287.753906 C 180.433594 283.597656 192.726562 274.25 199.613281 265.195312 C 202.1875 261.8125 206.820312 254.445312 206.820312 253.738281 C 206.820312 253.59375 207.324219 252.355469 207.9375 250.988281 C 211.449219 243.1875 213.257812 233.757812 213.257812 223.226562 C 213.257812 214.539062 212.648438 209.273438 210.84375 202.316406 C 207.132812 188.007812 200.097656 178.476562 185.378906 167.816406 C 183.726562 166.621094 182.195312 165.640625 181.972656 165.640625 C 181.753906 165.640625 180.46875 164.898438 179.125 163.992188 C 170.597656 158.238281 154.902344 151.773438 130.632812 144.019531 C 115.636719 139.230469 105.175781 134.792969 98.714844 130.476562 C 94.703125 127.796875 90.015625 122.628906 88.152344 118.835938 C 86.746094 115.972656 86.550781 114.886719 86.550781 110.007812 C 86.550781 101.855469 88.992188 96.980469 95.03125 93.070312 C 103.773438 87.417969 117.683594 85.988281 131.613281 89.308594 C 135.34375 90.199219 146 94.265625 147.414062 95.339844 C 147.738281 95.585938 149.542969 96.621094 151.429688 97.640625 C 156.402344 100.332031 163.152344 105.46875 168.214844 110.40625 L 172.625 114.710938 L 188.113281 98.640625 C 196.632812 89.804688 203.601562 82.304688 203.601562 81.972656 C 203.601562 80.871094 196.359375 73.265625 191.027344 68.761719 C 178.132812 57.875 165.34375 51.332031 146.539062 45.996094 C 136.460938 43.136719 115.566406 41.585938 101.472656 42.644531 M 354.304688 110.898438 C 336.972656 112.964844 323.230469 119.003906 310.304688 130.226562 L 306.019531 133.945312 L 305.859375 124.320312 L 305.699219 114.691406 L 251.882812 114.691406 L 251.882812 205.464844 C 251.882812 291.519531 251.9375 296.234375 252.90625 296.234375 C 260.652344 296.25 303.941406 296.261719 304.671875 296.25 C 305.59375 296.234375 305.675781 292.433594 305.867188 241.039062 L 306.074219 185.84375 L 307.425781 180.867188 C 310.683594 168.878906 316.992188 160.300781 325.683594 156.023438 C 333.246094 152.308594 343.984375 151.527344 353.425781 154.011719 C 357.921875 155.195312 362.234375 157.675781 365.921875 161.207031 C 369.820312 164.933594 371.433594 167.558594 373.691406 173.851562 L 375.054688 177.648438 L 375.238281 236.902344 C 375.410156 291.066406 375.507812 296.175781 376.375 296.34375 C 376.902344 296.445312 389.019531 296.457031 403.304688 296.367188 L 429.28125 296.210938 L 429.070312 231.367188 C 428.84375 162.246094 428.957031 165.136719 426.066406 154.515625 C 424.472656 148.652344 424.023438 147.433594 421.65625 142.542969 C 415.132812 129.050781 403.871094 119 389.871094 114.167969 C 378.832031 110.363281 367.519531 109.320312 354.304688 110.898438 M 551.828125 110.640625 C 526.589844 113.234375 506.222656 120.851562 488.28125 134.410156 C 482.691406 138.632812 482.542969 137.867188 490.429688 145.507812 C 503.375 158.050781 512.75 166.8125 513.230469 166.8125 C 513.492188 166.8125 515.566406 165.527344 517.84375 163.960938 C 527.074219 157.59375 535.667969 154.390625 547.082031 153.066406 C 565.027344 150.988281 578.917969 155.636719 585.816406 166.039062 C 588.488281 170.070312 590.601562 175.613281 591.109375 179.929688 L 591.476562 183.054688 L 559.945312 182.988281 C 529.117188 182.917969 528.300781 182.945312 523.085938 184.234375 C 514.917969 186.25 511.238281 187.546875 505.480469 190.4375 C 489.765625 198.335938 480.164062 209.09375 475.859375 223.617188 C 469.015625 246.714844 475.398438 270.496094 492.175781 284.429688 C 501.558594 292.21875 512.726562 297.289062 526.078125 299.824219 C 531.5625 300.867188 551.621094 300.84375 557.09375 299.792969 C 569.671875 297.375 578.75 293.660156 587.394531 287.394531 C 589.574219 285.8125 591.484375 284.523438 591.636719 284.523438 C 591.792969 284.523438 591.917969 287.242188 591.917969 290.566406 L 591.917969 296.613281 L 593.820312 296.472656 C 594.867188 296.398438 606.585938 296.3125 619.863281 296.285156 L 644.003906 296.234375 L 644 237.527344 C 643.996094 175.019531 643.921875 173.140625 641.085938 161.542969 C 634.703125 135.441406 618.148438 119.667969 590.160156 113.035156 C 579.550781 110.519531 563.042969 109.488281 551.828125 110.640625 M 804.074219 110.886719 C 786.960938 113.027344 773.871094 119.203125 763.855469 129.855469 C 761.402344 132.464844 759.238281 134.605469 759.054688 134.605469 C 758.867188 134.605469 758.714844 129.992188 758.714844 124.355469 L 758.714844 114.105469 L 710.722656 114.105469 L 710.722656 391.691406 L 760.472656 391.691406 L 760.472656 279.15625 L 763.464844 282.433594 C 767.78125 287.160156 772.808594 290.777344 779.492188 293.972656 C 789.046875 298.535156 798.285156 300.308594 812.605469 300.324219 C 831.253906 300.34375 847.472656 295.648438 860.460938 286.476562 C 864.71875 283.472656 877.101562 271.371094 879.339844 268.03125 C 880.109375 266.878906 881.773438 264.386719 883.035156 262.492188 C 897.914062 240.152344 902.480469 205.347656 894.738281 173.300781 C 893.265625 167.199219 891.691406 162.910156 888.308594 155.789062 C 878.789062 135.742188 862.472656 120.804688 843.285156 114.566406 C 836.796875 112.457031 834.140625 111.921875 824.847656 110.855469 C 816.296875 109.878906 812.082031 109.882812 804.074219 110.886719 M 795.878906 155.40625 C 788.214844 157.050781 782.867188 159.566406 777.332031 164.132812 C 769.546875 170.5625 764.308594 178.941406 761.566406 189.359375 C 760.351562 193.96875 760.179688 195.953125 760.179688 205.171875 C 760.179688 214.816406 760.316406 216.222656 761.785156 221.730469 C 763.515625 228.210938 765.210938 231.984375 768.703125 237.136719 C 774.160156 245.191406 782.644531 251.648438 790.90625 254.03125 C 792.351562 254.449219 794.300781 255.023438 795.234375 255.308594 C 798.136719 256.195312 812.070312 255.925781 816.167969 254.90625 C 828.859375 251.746094 840.519531 241.386719 845.519531 228.820312 C 848.484375 221.378906 849.429688 215.679688 849.429688 205.292969 C 849.429688 195.523438 848.773438 190.671875 846.597656 184.351562 C 842.328125 171.960938 833.042969 162.054688 821.394531 157.464844 C 814.28125 154.660156 803.4375 153.785156 795.878906 155.40625 M 545.976562 216.421875 C 542.140625 216.695312 536.609375 218.570312 533.703125 220.578125 C 526.523438 225.542969 523.199219 237.027344 526.46875 245.574219 C 530.441406 255.964844 542.390625 261.066406 558.714844 259.34375 C 573.683594 257.765625 584.390625 248.527344 588.589844 233.574219 C 589.382812 230.753906 591.917969 217.714844 591.917969 216.464844 C 591.917969 216.027344 552.082031 215.988281 545.976562 216.421875 M 653.511719 320.722656 C 646.699219 323.164062 642.320312 327.609375 639.851562 334.597656 C 637.464844 341.34375 639.558594 349.382812 644.941406 354.15625 C 648.273438 357.109375 650.398438 358.105469 659.375 360.921875 C 662.992188 362.058594 666.703125 363.488281 667.625 364.097656 C 673.476562 367.984375 672.585938 376.355469 665.953125 379.839844 C 664.792969 380.449219 662.703125 380.753906 659.800781 380.742188 C 656.023438 380.722656 654.867188 380.449219 651.605469 378.804688 C 649.519531 377.753906 647.179688 376.402344 646.414062 375.800781 C 644.648438 374.417969 641.539062 374.382812 640.375 375.730469 C 639.191406 377.09375 636.398438 381.984375 636.398438 382.6875 C 636.398438 383.535156 641.566406 387.167969 645.183594 388.863281 C 650.066406 391.148438 654.082031 391.832031 661.269531 391.597656 C 666.871094 391.414062 668.183594 391.167969 671.378906 389.695312 C 676.300781 387.429688 681.609375 381.832031 682.953125 377.492188 C 685.546875 369.121094 684.453125 361.964844 679.828125 357.019531 C 676.625 353.589844 674.097656 352.230469 665.367188 349.226562 C 657.214844 346.421875 655.0625 345.335938 653.152344 343.0625 C 651.246094 340.796875 651.179688 338.3125 652.941406 335.238281 C 654.949219 331.734375 657.402344 330.679688 663.027344 330.917969 C 667.070312 331.085938 668.300781 331.414062 672.058594 333.328125 C 677.761719 336.234375 678.535156 336.023438 681.160156 330.800781 L 683.207031 326.738281 L 681.304688 325.289062 C 680.261719 324.492188 677.566406 322.996094 675.3125 321.96875 C 671.554688 320.25 670.621094 320.078125 663.902344 319.859375 C 657.804688 319.660156 656.078125 319.804688 653.511719 320.722656 M 397.613281 355.675781 L 397.613281 391.105469 L 439.75 391.105469 L 439.75 379.976562 L 411.074219 379.976562 L 411.074219 320.246094 L 397.613281 320.246094 L 397.613281 355.675781 M 483.207031 335.308594 C 479.941406 343.609375 475.519531 354.882812 473.382812 360.359375 C 471.246094 365.835938 467.78125 374.664062 465.675781 379.976562 C 463.574219 385.292969 461.726562 389.96875 461.566406 390.371094 C 461.117188 391.515625 473.03125 391.386719 474.679688 390.230469 C 475.480469 389.671875 476.929688 386.621094 478.714844 381.730469 L 481.507812 374.101562 L 510.828125 374.414062 L 513.601562 382.019531 C 515.128906 386.203125 516.832031 389.957031 517.386719 390.363281 C 518.703125 391.324219 530.464844 391.40625 530.464844 390.457031 C 530.464844 390.097656 528.777344 385.554688 526.714844 380.355469 C 524.648438 375.15625 521.742188 367.738281 520.25 363.875 C 518.761719 360.007812 517.300781 356.320312 517.011719 355.675781 C 516.71875 355.03125 514.582031 349.628906 512.257812 343.667969 C 509.933594 337.710938 506.945312 330.066406 505.617188 326.6875 L 503.199219 320.539062 L 496.171875 320.375 L 489.140625 320.210938 L 483.207031 335.308594 M 557.386719 355.71875 L 557.386719 391.195312 L 575.382812 390.984375 C 592.527344 390.78125 593.542969 390.707031 596.765625 389.425781 C 607.273438 385.242188 612.554688 375.636719 609.921875 365.492188 C 608.945312 361.730469 604.292969 357.0625 600.144531 355.6875 C 598.515625 355.144531 597.183594 354.613281 597.183594 354.507812 C 597.183594 354.402344 598.351562 353.75 599.78125 353.058594 C 602.753906 351.617188 606.28125 347.964844 607.484375 345.085938 C 607.941406 343.992188 608.304688 341.171875 608.304688 338.726562 C 608.304688 331.355469 605.011719 325.921875 598.902344 323.222656 C 592.875 320.558594 590.175781 320.246094 573.359375 320.246094 L 557.386719 320.246094 L 557.386719 355.71875 M 571.433594 340.753906 L 571.433594 350.808594 L 579.480469 350.605469 C 588.636719 350.371094 591.210938 349.542969 593.519531 346.070312 C 595.1875 343.566406 595.332031 338.480469 593.820312 335.511719 C 592.019531 331.976562 589.375 331.105469 579.773438 330.890625 L 571.433594 330.699219 L 571.433594 340.753906 M 495.742188 334.886719 C 495.324219 336.226562 489.640625 352.050781 487.359375 358.226562 C 486.246094 361.242188 485.441406 363.816406 485.574219 363.949219 C 485.710938 364.082031 490.574219 364.121094 496.382812 364.03125 L 506.953125 363.875 L 504.609375 357.429688 C 497.695312 338.414062 495.992188 334.085938 495.742188 334.886719 M 571.433594 370.316406 L 571.433594 380.5625 L 579.925781 380.5625 C 587.375 380.5625 588.746094 380.410156 591.078125 379.3125 C 595.136719 377.40625 596.742188 374.90625 596.773438 370.457031 C 596.832031 362.304688 593.015625 360.085938 578.894531 360.074219 L 571.433594 360.066406 L 571.433594 370.316406 " fill-opacity="1" fill-rule="evenodd"/><path fill="#351d34" d="M 101.472656 42.644531 C 72.4375 44.835938 50.316406 56.882812 37.960938 77.230469 C 34.339844 83.195312 32.113281 89.363281 30.351562 98.296875 C 29.242188 103.925781 29.203125 119.367188 30.28125 124.941406 C 33.894531 143.578125 43.75 157.992188 60.796875 169.574219 C 67.941406 174.429688 77.945312 179.433594 88.804688 183.585938 C 93.175781 185.253906 110.527344 190.675781 115.226562 191.835938 C 122.335938 193.59375 139.585938 200.910156 144.285156 204.160156 C 150.925781 208.75 154.757812 214.8125 155.957031 222.625 C 157.96875 235.734375 150.726562 245.046875 135.082031 249.472656 C 128.824219 251.242188 112.914062 251.425781 106.238281 249.804688 C 89.089844 245.636719 73.167969 236.402344 57.820312 221.722656 L 52.257812 216.402344 L 48.335938 220.738281 C 46.175781 223.121094 41.886719 227.710938 38.800781 230.933594 C 35.710938 234.15625 31.507812 238.640625 29.457031 240.894531 C 27.402344 243.148438 24.199219 246.527344 22.335938 248.40625 C 20.476562 250.285156 18.953125 252.164062 18.953125 252.585938 C 18.953125 253.726562 27.265625 262.101562 33.332031 267.074219 C 46.710938 278.042969 64.550781 287.289062 80.402344 291.472656 C 94.171875 295.105469 104.324219 296.292969 121.578125 296.296875 C 136.371094 296.300781 143.480469 295.617188 153.5625 293.226562 C 156.894531 292.433594 163.4375 290.457031 164.972656 289.773438 C 165.617188 289.488281 167.851562 288.578125 169.9375 287.753906 C 180.433594 283.597656 192.726562 274.25 199.613281 265.195312 C 202.1875 261.8125 206.820312 254.445312 206.820312 253.738281 C 206.820312 253.59375 207.324219 252.355469 207.9375 250.988281 C 211.449219 243.1875 213.257812 233.757812 213.257812 223.226562 C 213.257812 214.539062 212.648438 209.273438 210.84375 202.316406 C 207.132812 188.007812 200.097656 178.476562 185.378906 167.816406 C 183.726562 166.621094 182.195312 165.640625 181.972656 165.640625 C 181.753906 165.640625 180.46875 164.898438 179.125 163.992188 C 170.597656 158.238281 154.902344 151.773438 130.632812 144.019531 C 115.636719 139.230469 105.175781 134.792969 98.714844 130.476562 C 94.703125 127.796875 90.015625 122.628906 88.152344 118.835938 C 86.746094 115.972656 86.550781 114.886719 86.550781 110.007812 C 86.550781 101.855469 88.992188 96.980469 95.03125 93.070312 C 103.773438 87.417969 117.683594 85.988281 131.613281 89.308594 C 135.34375 90.199219 146 94.265625 147.414062 95.339844 C 147.738281 95.585938 149.542969 96.621094 151.429688 97.640625 C 156.402344 100.332031 163.152344 105.46875 168.214844 110.40625 L 172.625 114.710938 L 188.113281 98.640625 C 196.632812 89.804688 203.601562 82.304688 203.601562 81.972656 C 203.601562 80.871094 196.359375 73.265625 191.027344 68.761719 C 178.132812 57.875 165.34375 51.332031 146.539062 45.996094 C 136.460938 43.136719 115.566406 41.585938 101.472656 42.644531 M 354.304688 110.898438 C 336.972656 112.964844 323.230469 119.003906 310.304688 130.226562 L 306.019531 133.945312 L 305.859375 124.320312 L 305.699219 114.691406 L 251.882812 114.691406 L 251.882812 205.464844 C 251.882812 291.519531 251.9375 296.234375 252.90625 296.234375 C 260.652344 296.25 303.941406 296.261719 304.671875 296.25 C 305.59375 296.234375 305.675781 292.433594 305.867188 241.039062 L 306.074219 185.84375 L 307.425781 180.867188 C 310.683594 168.878906 316.992188 160.300781 325.683594 156.023438 C 333.246094 152.308594 343.984375 151.527344 353.425781 154.011719 C 357.921875 155.195312 362.234375 157.675781 365.921875 161.207031 C 369.820312 164.933594 371.433594 167.558594 373.691406 173.851562 L 375.054688 177.648438 L 375.238281 236.902344 C 375.410156 291.066406 375.507812 296.175781 376.375 296.34375 C 376.902344 296.445312 389.019531 296.457031 403.304688 296.367188 L 429.28125 296.210938 L 429.070312 231.367188 C 428.84375 162.246094 428.957031 165.136719 426.066406 154.515625 C 424.472656 148.652344 424.023438 147.433594 421.65625 142.542969 C 415.132812 129.050781 403.871094 119 389.871094 114.167969 C 378.832031 110.363281 367.519531 109.320312 354.304688 110.898438 M 551.828125 110.640625 C 526.589844 113.234375 506.222656 120.851562 488.28125 134.410156 C 482.691406 138.632812 482.542969 137.867188 490.429688 145.507812 C 503.375 158.050781 512.75 166.8125 513.230469 166.8125 C 513.492188 166.8125 515.566406 165.527344 517.84375 163.960938 C 527.074219 157.59375 535.667969 154.390625 547.082031 153.066406 C 565.027344 150.988281 578.917969 155.636719 585.816406 166.039062 C 588.488281 170.070312 590.601562 175.613281 591.109375 179.929688 L 591.476562 183.054688 L 559.945312 182.988281 C 529.117188 182.917969 528.300781 182.945312 523.085938 184.234375 C 514.917969 186.25 511.238281 187.546875 505.480469 190.4375 C 489.765625 198.335938 480.164062 209.09375 475.859375 223.617188 C 469.015625 246.714844 475.398438 270.496094 492.175781 284.429688 C 501.558594 292.21875 512.726562 297.289062 526.078125 299.824219 C 531.5625 300.867188 551.621094 300.84375 557.09375 299.792969 C 569.671875 297.375 578.75 293.660156 587.394531 287.394531 C 589.574219 285.8125 591.484375 284.523438 591.636719 284.523438 C 591.792969 284.523438 591.917969 287.242188 591.917969 290.566406 L 591.917969 296.613281 L 593.820312 296.472656 C 594.867188 296.398438 606.585938 296.3125 619.863281 296.285156 L 644.003906 296.234375 L 644 237.527344 C 643.996094 175.019531 643.921875 173.140625 641.085938 161.542969 C 634.703125 135.441406 618.148438 119.667969 590.160156 113.035156 C 579.550781 110.519531 563.042969 109.488281 551.828125 110.640625 M 804.074219 110.886719 C 786.960938 113.027344 773.871094 119.203125 763.855469 129.855469 C 761.402344 132.464844 759.238281 134.605469 759.054688 134.605469 C 758.867188 134.605469 758.714844 129.992188 758.714844 124.355469 L 758.714844 114.105469 L 710.722656 114.105469 L 710.722656 391.691406 L 760.472656 391.691406 L 760.472656 279.15625 L 763.464844 282.433594 C 767.78125 287.160156 772.808594 290.777344 779.492188 293.972656 C 789.046875 298.535156 798.285156 300.308594 812.605469 300.324219 C 831.253906 300.34375 847.472656 295.648438 860.460938 286.476562 C 864.71875 283.472656 877.101562 271.371094 879.339844 268.03125 C 880.109375 266.878906 881.773438 264.386719 883.035156 262.492188 C 897.914062 240.152344 902.480469 205.347656 894.738281 173.300781 C 893.265625 167.199219 891.691406 162.910156 888.308594 155.789062 C 878.789062 135.742188 862.472656 120.804688 843.285156 114.566406 C 836.796875 112.457031 834.140625 111.921875 824.847656 110.855469 C 816.296875 109.878906 812.082031 109.882812 804.074219 110.886719 M 795.878906 155.40625 C 788.214844 157.050781 782.867188 159.566406 777.332031 164.132812 C 769.546875 170.5625 764.308594 178.941406 761.566406 189.359375 C 760.351562 193.96875 760.179688 195.953125 760.179688 205.171875 C 760.179688 214.816406 760.316406 216.222656 761.785156 221.730469 C 763.515625 228.210938 765.210938 231.984375 768.703125 237.136719 C 774.160156 245.191406 782.644531 251.648438 790.90625 254.03125 C 792.351562 254.449219 794.300781 255.023438 795.234375 255.308594 C 798.136719 256.195312 812.070312 255.925781 816.167969 254.90625 C 828.859375 251.746094 840.519531 241.386719 845.519531 228.820312 C 848.484375 221.378906 849.429688 215.679688 849.429688 205.292969 C 849.429688 195.523438 848.773438 190.671875 846.597656 184.351562 C 842.328125 171.960938 833.042969 162.054688 821.394531 157.464844 C 814.28125 154.660156 803.4375 153.785156 795.878906 155.40625 M 545.976562 216.421875 C 542.140625 216.695312 536.609375 218.570312 533.703125 220.578125 C 526.523438 225.542969 523.199219 237.027344 526.46875 245.574219 C 530.441406 255.964844 542.390625 261.066406 558.714844 259.34375 C 573.683594 257.765625 584.390625 248.527344 588.589844 233.574219 C 589.382812 230.753906 591.917969 217.714844 591.917969 216.464844 C 591.917969 216.027344 552.082031 215.988281 545.976562 216.421875 M 653.511719 320.722656 C 646.699219 323.164062 642.320312 327.609375 639.851562 334.597656 C 637.464844 341.34375 639.558594 349.382812 644.941406 354.15625 C 648.273438 357.109375 650.398438 358.105469 659.375 360.921875 C 662.992188 362.058594 666.703125 363.488281 667.625 364.097656 C 673.476562 367.984375 672.585938 376.355469 665.953125 379.839844 C 664.792969 380.449219 662.703125 380.753906 659.800781 380.742188 C 656.023438 380.722656 654.867188 380.449219 651.605469 378.804688 C 649.519531 377.753906 647.179688 376.402344 646.414062 375.800781 C 644.648438 374.417969 641.539062 374.382812 640.375 375.730469 C 639.191406 377.09375 636.398438 381.984375 636.398438 382.6875 C 636.398438 383.535156 641.566406 387.167969 645.183594 388.863281 C 650.066406 391.148438 654.082031 391.832031 661.269531 391.597656 C 666.871094 391.414062 668.183594 391.167969 671.378906 389.695312 C 676.300781 387.429688 681.609375 381.832031 682.953125 377.492188 C 685.546875 369.121094 684.453125 361.964844 679.828125 357.019531 C 676.625 353.589844 674.097656 352.230469 665.367188 349.226562 C 657.214844 346.421875 655.0625 345.335938 653.152344 343.0625 C 651.246094 340.796875 651.179688 338.3125 652.941406 335.238281 C 654.949219 331.734375 657.402344 330.679688 663.027344 330.917969 C 667.070312 331.085938 668.300781 331.414062 672.058594 333.328125 C 677.761719 336.234375 678.535156 336.023438 681.160156 330.800781 L 683.207031 326.738281 L 681.304688 325.289062 C 680.261719 324.492188 677.566406 322.996094 675.3125 321.96875 C 671.554688 320.25 670.621094 320.078125 663.902344 319.859375 C 657.804688 319.660156 656.078125 319.804688 653.511719 320.722656 M 397.613281 355.675781 L 397.613281 391.105469 L 439.75 391.105469 L 439.75 379.976562 L 411.074219 379.976562 L 411.074219 320.246094 L 397.613281 320.246094 L 397.613281 355.675781 M 483.207031 335.308594 C 479.941406 343.609375 475.519531 354.882812 473.382812 360.359375 C 471.246094 365.835938 467.78125 374.664062 465.675781 379.976562 C 463.574219 385.292969 461.726562 389.96875 461.566406 390.371094 C 461.117188 391.515625 473.03125 391.386719 474.679688 390.230469 C 475.480469 389.671875 476.929688 386.621094 478.714844 381.730469 L 481.507812 374.101562 L 510.828125 374.414062 L 513.601562 382.019531 C 515.128906 386.203125 516.832031 389.957031 517.386719 390.363281 C 518.703125 391.324219 530.464844 391.40625 530.464844 390.457031 C 530.464844 390.097656 528.777344 385.554688 526.714844 380.355469 C 524.648438 375.15625 521.742188 367.738281 520.25 363.875 C 518.761719 360.007812 517.300781 356.320312 517.011719 355.675781 C 516.71875 355.03125 514.582031 349.628906 512.257812 343.667969 C 509.933594 337.710938 506.945312 330.066406 505.617188 326.6875 L 503.199219 320.539062 L 496.171875 320.375 L 489.140625 320.210938 L 483.207031 335.308594 M 557.386719 355.71875 L 557.386719 391.195312 L 575.382812 390.984375 C 592.527344 390.78125 593.542969 390.707031 596.765625 389.425781 C 607.273438 385.242188 612.554688 375.636719 609.921875 365.492188 C 608.945312 361.730469 604.292969 357.0625 600.144531 355.6875 C 598.515625 355.144531 597.183594 354.613281 597.183594 354.507812 C 597.183594 354.402344 598.351562 353.75 599.78125 353.058594 C 602.753906 351.617188 606.28125 347.964844 607.484375 345.085938 C 607.941406 343.992188 608.304688 341.171875 608.304688 338.726562 C 608.304688 331.355469 605.011719 325.921875 598.902344 323.222656 C 592.875 320.558594 590.175781 320.246094 573.359375 320.246094 L 557.386719 320.246094 L 557.386719 355.71875 M 571.433594 340.753906 L 571.433594 350.808594 L 579.480469 350.605469 C 588.636719 350.371094 591.210938 349.542969 593.519531 346.070312 C 595.1875 343.566406 595.332031 338.480469 593.820312 335.511719 C 592.019531 331.976562 589.375 331.105469 579.773438 330.890625 L 571.433594 330.699219 L 571.433594 340.753906 M 495.742188 334.886719 C 495.324219 336.226562 489.640625 352.050781 487.359375 358.226562 C 486.246094 361.242188 485.441406 363.816406 485.574219 363.949219 C 485.710938 364.082031 490.574219 364.121094 496.382812 364.03125 L 506.953125 363.875 L 504.609375 357.429688 C 497.695312 338.414062 495.992188 334.085938 495.742188 334.886719 M 571.433594 370.316406 L 571.433594 380.5625 L 579.925781 380.5625 C 587.375 380.5625 588.746094 380.410156 591.078125 379.3125 C 595.136719 377.40625 596.742188 374.90625 596.773438 370.457031 C 596.832031 362.304688 593.015625 360.085938 578.894531 360.074219 L 571.433594 360.066406 L 571.433594 370.316406 " fill-opacity="1" fill-rule="evenodd"/></svg>